# xmcd CD database file
#
# Track frame offsets:
#	150
#	4397
#	24350
#	44045
#	62027
#	85140
#	99282
#	122895
#	146005
#	168057
#	188665
#	209247
#	229665
#	247670
#	264472
#	273047
#	291327
#	312315
#
# Disc length: 4514 seconds
#
# Revision: 2
# Processed by: cddbd v1.4PL0 Copyright (c) Steve Scherf et al.
# Submitted via: CDex 1.50beta8
#
DISCID=fb11a012
DTITLE=Alphonse Mouzon - Absolute Greatest Love Songs and Ballads
DYEAR=1900
DGENRE=Jazz
TTITLE0=INTRODUCTION BY ALPHONSE MOUZON
TTITLE1=YOU MADE MY DREAM COME TRUE
TTITLE2=HAPPILY IN LOVE
TTITLE3=MAD ABOUT YOU
TTITLE4=SEDUCTION
TTITLE5=JEAN-PIERRE
TTITLE6=OBSESSION
TTITLE7=YOUR EYES ARE BEAUTIFUL
TTITLE8=TWO LONELY HEARTS
TTITLE9=MORNING SUN
TTITLE10=A LULLABYE FOR LITTLE ALPHONSE
TTITLE11=MAKING LOVE WITH YOU
TTITLE12=ALLISON
TTITLE13=IT'S NOT OVER YET
TTITLE14=ALONE IN PARIS
TTITLE15=GAMES PEOPLE PLAY
TTITLE16=WHAT ARE YOU DOING LATER ON?
TTITLE17=DADDY'S LITTLE GIRL
EXTD=
EXTT0=
EXTT1=
EXTT2=
EXTT3=
EXTT4=
EXTT5=
EXTT6=
EXTT7=
EXTT8=
EXTT9=
EXTT10=
EXTT11=
EXTT12=
EXTT13=
EXTT14=
EXTT15=
EXTT16=
EXTT17=
PLAYORDER=
